<svg width="22" height="24" viewBox="0 0 22 24" fill="none" xmlns="http://www.w3.org/2000/svg">
<path fill-rule="evenodd" clip-rule="evenodd" d="M10.9999 8.24953C8.92888 8.24953 7.24995 9.92846 7.24995 11.9995C7.24995 14.0706 8.92888 15.7495 10.9999 15.7495C13.071 15.7495 14.7499 14.0706 14.7499 11.9995C14.7499 9.92846 13.071 8.24953 10.9999 8.24953ZM8.74995 11.9995C8.74995 10.7569 9.75731 9.74953 10.9999 9.74953C12.2426 9.74953 13.2499 10.7569 13.2499 11.9995C13.2499 13.2422 12.2426 14.2495 10.9999 14.2495C9.75731 14.2495 8.74995 13.2422 8.74995 11.9995Z" fill="white"/>
<path fill-rule="evenodd" clip-rule="evenodd" d="M14.4147 3.23181C13.4342 -0.203572 8.56564 -0.203571 7.58523 3.23181C7.28146 4.29621 6.18792 4.92757 5.11423 4.65844C1.6489 3.78981 -0.785401 8.00615 1.69952 10.5729C2.46944 11.3682 2.46944 12.6309 1.69952 13.4262C-0.785401 15.9929 1.6489 20.2092 5.11423 19.3406C6.18792 19.0715 7.28146 19.7028 7.58523 20.7673C8.56564 24.2026 13.4342 24.2026 14.4147 20.7673C14.7184 19.7028 15.812 19.0715 16.8857 19.3406C20.351 20.2092 22.7853 15.9929 20.3004 13.4262C19.5305 12.6309 19.5305 11.3682 20.3004 10.5729C22.7853 8.00615 20.351 3.78981 16.8857 4.65844C15.812 4.92757 14.7184 4.29621 14.4147 3.23181ZM9.02764 3.64345C9.59392 1.65921 12.406 1.65921 12.9722 3.64345C13.4982 5.48629 15.3915 6.57938 17.2504 6.11343C19.2519 5.61172 20.6579 8.04703 19.2227 9.52956C17.8897 10.9064 17.8897 13.0926 19.2227 14.4695C20.6579 15.952 19.2519 18.3873 17.2504 17.8856C15.3915 17.4197 13.4982 18.5128 12.9722 20.3556C12.406 22.3398 9.59392 22.3398 9.02764 20.3556C8.50172 18.5128 6.60843 17.4197 4.74952 17.8856C2.74798 18.3873 1.34196 15.952 2.77722 14.4695C4.1102 13.0926 4.1102 10.9064 2.77722 9.52956C1.34196 8.04703 2.74798 5.61172 4.74952 6.11343C6.60843 6.57938 8.50172 5.48629 9.02764 3.64345Z" fill="white"/>
</svg>
