<svg width="41" height="40" viewBox="0 0 41 40" fill="none" xmlns="http://www.w3.org/2000/svg">
<g clip-path="url(#clip0_468_15859)">
<path d="M22.0547 31.6118L20.3479 33.3186C19.8762 33.7904 19.1128 33.7904 18.6411 33.3186C18.1694 32.8469 18.1694 32.0835 18.6411 31.6118L20.3479 29.905C20.8188 29.4342 20.8188 28.6691 20.3479 28.1982L18.7786 26.6289C18.3069 26.1572 18.3069 25.3938 18.7786 24.9221C19.2504 24.4504 20.0138 24.4504 20.4854 24.9221L22.0547 26.4914C23.4666 27.9032 23.4666 30.2 22.0547 31.6118Z" fill="#713708"/>
<path d="M24.615 39.2935C23.6723 40.2362 22.144 40.2362 21.2014 39.2935L12.6672 30.7594L16.0808 27.3457L24.615 35.8798C25.5577 36.8225 25.5577 38.3509 24.615 39.2935Z" fill="#994C0F"/>
<path d="M12.5988 20.4492L17.89 25.7405L17.7876 29.0517L11.8137 35.0256C10.3971 36.4423 8.07574 36.4082 6.6591 34.9914L3.24543 31.5777C1.84582 30.1781 1.86285 27.908 3.27965 26.4914L9.25355 20.5175L12.5988 20.4492Z" fill="#FE318F"/>
<path d="M15.2276 23.0781L17.8902 25.7408L17.7878 29.052L11.8139 35.0259C10.3973 36.4426 8.07595 36.4085 6.65931 34.9917L4.98657 33.319L15.2276 23.0781Z" fill="#FD0F7F"/>
<path d="M27.5986 4.82797C26.9328 4.82875 26.3919 4.28789 26.3919 3.62125L26.3911 1.20688C26.391 0.540079 26.931 8.45299e-07 27.5978 8.45299e-07C28.2637 -0.000780405 28.8046 0.540079 28.8046 1.20672L28.8053 3.62109C28.8054 4.28789 28.2654 4.82797 27.5986 4.82797Z" fill="#1BD9DE"/>
<path d="M37.2537 12.0705L34.8393 12.0697C34.1726 12.0697 33.6316 11.5288 33.6326 10.863C33.6326 10.1962 34.1726 9.65625 34.8393 9.65625L37.2537 9.65703C37.9204 9.65703 38.4613 10.1979 38.4604 10.8638C38.4604 11.5304 37.9204 12.0705 37.2537 12.0705Z" fill="#1BD9DE"/>
<path d="M35.7095 2.59676C36.1874 3.07465 36.1875 3.82566 35.7095 4.30355L33.1493 6.86379C32.6713 7.34176 31.9203 7.34168 31.4425 6.86379C30.9645 6.38582 30.9645 5.63488 31.4425 5.15699L34.0027 2.59676C34.4806 2.11879 35.2315 2.11879 35.7095 2.59676Z" fill="#1BD9DE"/>
<path d="M21.2013 5.15547L33.1491 17.1033C33.4905 17.4447 33.9172 21.046 34.3609 21.1144L30.9986 21.8142C26.0146 22.8041 21.2867 25.5522 18.0779 28.761L17.7877 29.0512L9.25342 20.517L9.54357 20.2268C12.9232 16.8472 15.4151 12.3752 16.4391 7.25484L17.1389 3.75586L21.2013 5.15547Z" fill="#CAE8F9"/>
<path d="M11.8138 26.4912C12.2917 26.9691 12.2918 27.7201 11.8138 28.198L10.107 29.9049C9.62905 30.3829 8.87804 30.3828 8.40022 29.9049C7.92226 29.4269 7.92226 28.676 8.40022 28.1981L10.107 26.4913C10.585 26.0133 11.3359 26.0133 11.8138 26.4912Z" fill="#E1E4FB"/>
<path d="M27.1754 11.1309L33.1493 17.1048C33.4907 17.4462 33.9173 21.0475 34.3611 21.1159L30.9987 21.8157C26.0147 22.8056 21.2868 25.5537 18.078 28.7625L17.7879 29.0527L13.5208 24.7855L27.1754 11.1309Z" fill="#B7E0F6"/>
<path d="M11.8137 26.4922C12.2916 26.9701 12.2917 27.7211 11.8137 28.199L10.1069 29.9059C9.62897 30.3838 8.87796 30.3838 8.40015 29.9059L11.8137 26.4922Z" fill="#C5C9F7"/>
<path d="M21.2014 1.74313L36.5629 17.1046C37.5016 18.0434 37.5016 19.5795 36.5629 20.5183C36.4605 20.6207 36.3239 20.6889 36.1873 20.7572C35.6411 21.1328 34.9926 21.2693 34.3609 21.1156C33.9173 21.0474 33.4905 20.8597 33.1491 20.5183L17.7877 5.15673C17.395 4.76407 17.2073 4.26915 17.139 3.75712C17.0708 3.24509 17.1733 2.7329 17.4292 2.2722C17.5487 2.08438 17.634 1.89673 17.7877 1.74306C18.7264 0.804385 20.2627 0.804385 21.2014 1.74313Z" fill="#FE318F"/>
<path d="M28.882 9.42383L36.5627 17.1045C37.5015 18.0433 37.5015 19.5795 36.5627 20.5182C36.4603 20.6206 36.3237 20.6888 36.1871 20.7571C35.6409 21.1327 34.9924 21.2692 34.3608 21.1155C33.9171 21.0473 33.4904 20.8596 33.149 20.5182L25.4683 12.8375L28.882 9.42383Z" fill="#FD0F7F"/>
</g>
<defs>
<clipPath id="clip0_468_15859">
<rect width="40" height="40" fill="white" transform="translate(0.333496)"/>
</clipPath>
</defs>
</svg>
