<svg width="40" height="40" viewBox="0 0 40 40" fill="none" xmlns="http://www.w3.org/2000/svg">
<path d="M35.892 20.0018L37.4275 15.9966C37.596 15.5547 37.4647 15.0538 37.0951 14.7541L33.7658 12.0549L33.0921 7.81785C33.0177 7.34974 32.6502 6.98444 32.1821 6.91007L27.9451 6.23634L25.248 2.90491C24.9505 2.53523 24.4387 2.40399 24.0077 2.57242L20.0004 4.11018L15.9952 2.57461C15.5512 2.40399 15.0546 2.53961 14.755 2.9071L12.0557 6.23853L7.81866 6.91226C7.35274 6.98663 6.98525 7.35412 6.91088 7.82003L6.23716 12.0571L2.90572 14.7563C2.53823 15.0538 2.4048 15.5547 2.57323 15.9966L4.1088 20.0018L2.57323 24.0069C2.40262 24.4488 2.53823 24.9497 2.90572 25.2472L6.23716 27.9443L6.91088 32.1813C6.98525 32.6494 7.35055 33.0169 7.81866 33.0913L12.0557 33.765L14.755 37.0942C15.0546 37.4661 15.5556 37.5973 15.9974 37.4267L20.0004 35.8933L24.0055 37.4289C24.1324 37.477 24.2637 37.5011 24.3971 37.5011C24.7186 37.5011 25.0358 37.3589 25.248 37.0942L27.9451 33.765L32.1821 33.0913C32.6502 33.0169 33.0177 32.6494 33.0921 32.1813L33.7658 27.9443L37.0951 25.2472C37.4647 24.9475 37.596 24.4488 37.4275 24.0069L35.892 20.0018Z" fill="#F44336"/>
<path d="M16.7194 17.8142C14.9104 17.8142 13.4382 16.3421 13.4382 14.5331C13.4382 12.7241 14.9104 11.252 16.7194 11.252C18.5284 11.252 20.0005 12.7241 20.0005 14.5331C20.0005 16.3421 18.5284 17.8142 16.7194 17.8142ZM16.7194 13.4394C16.1156 13.4394 15.6256 13.9294 15.6256 14.5331C15.6256 15.1368 16.1156 15.6268 16.7194 15.6268C17.3231 15.6268 17.8131 15.1368 17.8131 14.5331C17.8131 13.9294 17.3231 13.4394 16.7194 13.4394Z" fill="#FAFAFA"/>
<path d="M23.2814 28.7498C21.4724 28.7498 20.0002 27.2776 20.0002 25.4686C20.0002 23.6596 21.4724 22.1875 23.2814 22.1875C25.0904 22.1875 26.5625 23.6596 26.5625 25.4686C26.5625 27.2776 25.0904 28.7498 23.2814 28.7498ZM23.2814 24.3749C22.6798 24.3749 22.1877 24.8671 22.1877 25.4686C22.1877 26.0702 22.6798 26.5623 23.2814 26.5623C23.8829 26.5623 24.3751 26.0702 24.3751 25.4686C24.3751 24.8671 23.8829 24.3749 23.2814 24.3749Z" fill="#FAFAFA"/>
<path d="M14.5322 28.7505C14.3113 28.7505 14.0903 28.6849 13.8978 28.5471C13.4057 28.1949 13.2919 27.5125 13.6441 27.0203L24.5812 11.7084C24.9334 11.2162 25.6158 11.1025 26.108 11.4546C26.6002 11.8046 26.7117 12.4893 26.3617 12.9793L15.4247 28.2912C15.2081 28.5909 14.8734 28.7505 14.5322 28.7505Z" fill="#FAFAFA"/>
</svg>
