<svg width="41" height="40" viewBox="0 0 41 40" fill="none" xmlns="http://www.w3.org/2000/svg">
<g clip-path="url(#clip0_467_15811)">
<path d="M25.8903 9.52247C23.2098 9.52247 20.6043 10.3279 18.3348 11.7092L13.0567 11.7068H13.0465C13.0465 11.7068 13.0434 11.7061 13.0418 11.7053C13.0411 11.7053 13.0395 11.7061 13.0387 11.7068H3.90825C3.09419 11.7068 2.43481 12.367 2.43481 13.1803V13.1951C2.43481 14.0092 3.09497 14.6686 3.90825 14.6686L11.1543 14.6725C11.9184 14.7272 12.5208 15.3639 12.5208 16.142V16.1568C12.5208 16.9709 11.8606 17.6303 11.0473 17.6303H6.98716C6.1731 17.6303 5.51372 18.2904 5.51372 19.1037V19.1186C5.51372 19.9326 6.17388 20.592 6.98716 20.592H8.58091C9.39497 20.592 10.0543 21.2522 10.0543 22.0654V22.0803C10.0543 22.8943 9.39419 23.5537 8.58091 23.5537H1.80669C0.993408 23.5561 0.333252 24.2154 0.333252 25.0295V25.0443C0.333252 25.8584 0.993408 26.5178 1.80669 26.5178H9.74888C10.5629 26.5178 11.2223 27.1772 11.2223 27.9912V28.0061C11.2223 28.8201 10.5622 29.4795 9.74888 29.4795H5.8895C5.07544 29.4795 4.41606 30.1397 4.41606 30.9529V30.9678C4.41606 31.7818 5.07622 32.4412 5.8895 32.4412H13.9911C16.0153 34.485 18.8778 35.7272 22.2059 35.7272C29.4426 35.7272 36.1333 29.8607 37.1504 22.624C38.1676 15.3873 33.1254 9.5209 25.8887 9.5209L25.8903 9.52247ZM30.7747 21.2959L24.6012 30.8217C24.459 31.0404 24.2161 31.1725 23.9551 31.1725H23.4715C22.9731 31.1725 22.6059 30.7061 22.7239 30.2217L24.245 23.9436H20.5364C20.0918 23.9436 19.7645 23.5279 19.8692 23.0959L21.927 14.6022C22.0012 14.2943 22.277 14.0772 22.5942 14.0772H26.8614C27.3059 14.0772 27.6333 14.4928 27.5286 14.9248L26.2731 20.1068H30.1286C30.7387 20.1068 31.1059 20.7826 30.7747 21.2951V21.2959ZM40.2442 12.7397C40.1692 12.6131 38.6403 10.767 38.4614 10.5717C38.295 10.3654 36.7004 8.57715 36.5864 8.48418C36.4083 8.32325 36.0911 8.292 35.852 8.42872C35.709 8.51153 35.5208 8.63497 35.2911 8.83575C35.0622 9.03731 34.9153 9.20762 34.8137 9.33887C34.6458 9.5584 34.6325 9.88028 34.7653 10.0811C34.7997 10.1389 35.134 10.5514 35.5051 11.0029C35.2825 11.1897 35.034 11.4006 34.7786 11.617C35.0692 11.892 35.3465 12.1826 35.6098 12.4889C36.0676 13.0217 36.4731 13.5897 36.8262 14.1904C37.1067 13.9365 37.3817 13.6873 37.6223 13.467C38.0129 13.9022 38.3708 14.2943 38.4223 14.3365C38.6004 14.4967 38.9176 14.5287 39.1567 14.392C39.2997 14.3092 39.4879 14.1857 39.7176 13.985C39.9465 13.7834 40.0934 13.6131 40.195 13.4811C40.3629 13.2615 40.3762 12.9397 40.2434 12.7389L40.2442 12.7397ZM21.9223 7.53887C22.02 7.5545 22.8208 7.57481 23.7028 7.59122C23.6567 7.87481 23.6067 8.1834 23.5551 8.50372C24.3872 8.36231 25.2247 8.29043 26.0629 8.29043C26.9012 8.29043 27.7184 8.36153 28.5114 8.50372C28.5504 8.1834 28.5872 7.87481 28.62 7.59122C29.5075 7.57481 30.3137 7.5545 30.4153 7.53887C30.7817 7.49903 31.1754 7.20996 31.3075 6.85371C31.3856 6.63965 31.4747 6.34668 31.5317 5.94512C31.5872 5.54356 31.5809 5.25059 31.5629 5.03653C31.5309 4.68106 31.2184 4.392 30.8637 4.35137C30.6497 4.317 27.0301 4.25997 26.6278 4.2709C26.2286 4.25997 22.5934 4.317 22.37 4.35137C22.0036 4.39122 21.6098 4.68106 21.4778 5.03653C21.3997 5.25059 21.3106 5.54356 21.2536 5.94512C21.1981 6.3459 21.2043 6.63965 21.2223 6.85371C21.2543 7.20918 21.5668 7.49825 21.9215 7.53887H21.9223ZM3.04888 17.6318C2.23247 17.6318 1.57153 18.2936 1.57153 19.1092C1.57153 19.9256 2.23325 20.5865 3.04888 20.5865C3.86528 20.5865 4.52622 19.9248 4.52622 19.1092C4.52622 18.2928 3.8645 17.6318 3.04888 17.6318Z" fill="url(#paint0_linear_467_15811)"/>
</g>
<defs>
<linearGradient id="paint0_linear_467_15811" x1="0.333252" y1="19.999" x2="40.3333" y2="19.999" gradientUnits="userSpaceOnUse">
<stop stop-color="#CC3232"/>
<stop offset="0.6" stop-color="#EF5A5A"/>
<stop offset="1" stop-color="#F47E67"/>
</linearGradient>
<clipPath id="clip0_467_15811">
<rect width="40" height="40" fill="white" transform="translate(0.333252)"/>
</clipPath>
</defs>
</svg>
