<svg width="40" height="40" viewBox="0 0 40 40" fill="none" xmlns="http://www.w3.org/2000/svg">
<path d="M39.1667 11.5077V28.491C39.1667 29.0827 38.85 29.6327 38.3334 29.9327L24.1667 38.1077C23.65 38.4077 23.0167 38.4077 22.5 38.1077L8.33337 29.9327C7.81671 29.6327 7.50004 29.0827 7.50004 28.491V27.4993C7.50004 27.0394 7.12671 26.666 6.66671 26.666H2.08337C1.39171 26.666 0.833374 26.1077 0.833374 25.416C0.833374 24.7243 1.39171 24.166 2.08337 24.166H7.91671C8.60837 24.166 9.16671 23.6077 9.16671 22.916C9.16671 22.2243 8.60837 21.666 7.91671 21.666H6.32504C5.63337 21.666 5.07504 21.1077 5.07504 20.416C5.07504 19.7243 5.63337 19.166 6.32504 19.166H7.91671C8.60837 19.166 9.16671 18.6077 9.16671 17.916C9.16671 17.2243 8.60837 16.666 7.91671 16.666H3.75004C3.05837 16.666 2.50004 16.1077 2.50004 15.416C2.50004 14.7243 3.05837 14.166 3.75004 14.166H6.66671C7.12671 14.166 7.50004 13.7927 7.50004 13.3327V11.5077C7.50004 10.916 7.81671 10.366 8.33337 10.066L22.5 1.89102C23.0167 1.59102 23.65 1.59102 24.1667 1.89102L38.3334 10.066C38.85 10.366 39.1667 10.916 39.1667 11.5077Z" fill="#FFA221"/>
<path d="M39.1667 11.5077V28.491C39.1667 29.0827 38.85 29.6327 38.3334 29.9327L24.1667 38.1077C23.9084 38.2577 23.6167 38.3327 23.3334 38.3327V1.66602C23.6167 1.66602 23.9084 1.74102 24.1667 1.89102L38.3334 10.066C38.85 10.366 39.1667 10.916 39.1667 11.5077Z" fill="#FF8200"/>
<path d="M39.0251 10.8327L23.3334 19.8743L7.64172 10.8327C7.78339 10.516 8.02506 10.2493 8.33339 10.066L22.5001 1.89102C23.0167 1.59102 23.6501 1.59102 24.1667 1.89102L38.3334 10.066C38.6417 10.2493 38.8834 10.516 39.0251 10.8327Z" fill="#FFC343"/>
<path d="M32.9917 6.98419L17.1042 16.1659C17.0401 16.2034 17.0001 16.2717 17.0001 16.3459V20.0325C17.0001 20.1925 16.8267 20.2934 16.6876 20.2134L13.8751 18.5967C13.7459 18.5225 13.6659 18.3842 13.6659 18.2359V14.5509C13.6659 14.4017 13.7451 14.2642 13.8742 14.19L29.6659 5.06836L32.9909 6.98503L32.9917 6.98419Z" fill="#FF8200"/>
<path d="M13.725 14.3387C13.6883 14.4021 13.6666 14.4737 13.6666 14.5496V18.2346C13.6666 18.3837 13.7466 18.5212 13.8758 18.5954L16.6883 20.2121C16.8275 20.2921 17.0008 20.1921 17.0008 20.0312V16.3446C17.0008 16.3079 17.0108 16.2721 17.0283 16.2412L13.725 14.3387Z" fill="#FF6500"/>
</svg>
