<svg width="41" height="40" viewBox="0 0 41 40" fill="none" xmlns="http://www.w3.org/2000/svg">
<g clip-path="url(#clip0_467_15814)">
<path d="M18.124 11.1204C18.7588 12.2651 12.1664 18.8059 7.39563 18.8059C5.39903 17.506 3.15919 16.4135 0.666504 15.5957L5.18717 12.4421C6.35025 13.3855 8.35556 13.001 9.53084 12.2311C10.7061 11.4604 10.3417 10.3148 9.48987 9.80995L12.5719 7.61719C14.477 8.50301 16.3411 9.68876 18.124 11.1204Z" fill="#FF8293"/>
<path d="M31.2796 29.8498L28.2873 31.597C27.1304 30.4418 26.2428 29.9719 25.0353 30.5264C23.6499 31.162 23.5348 32.9912 24.52 34.2589L19.8825 37.3226C18.4247 30.4967 14.4054 23.3709 7.39551 18.8067C11.7601 13.2162 17.8929 11.1952 18.1239 11.1211C23.6647 15.5668 28.4347 22.3726 31.2796 29.8498Z" fill="#FF6B7D"/>
<path d="M12.9888 17.9239C13.9943 17.1926 15.5336 17.4705 16.4196 18.5433C17.3056 19.6161 17.2078 21.0835 16.2023 21.8148C15.1967 22.546 13.6586 22.2683 12.7726 21.1956C11.8866 20.1228 11.9833 18.6552 12.9888 17.9239ZM15.1412 20.5301C15.4826 20.2818 15.5162 19.7834 15.2154 19.4191C14.9146 19.0549 14.3913 18.9604 14.0499 19.2087C13.7084 19.457 13.676 19.9556 13.9768 20.3199C14.2776 20.6841 14.7998 20.7783 15.1412 20.5301Z" fill="#F0E3E7"/>
<path d="M17.5689 15.615C17.6654 15.5449 17.7838 15.4985 17.9179 15.4846C18.3501 15.4408 18.7811 15.7504 18.8812 16.1773L21.2244 26.1948C21.2932 26.4892 21.1873 26.7626 20.973 26.9184C20.8767 26.9885 20.7579 27.0348 20.6234 27.0483C20.1918 27.0927 19.7608 26.7821 19.6607 26.3552L17.3175 16.3377C17.2486 16.0435 17.3549 15.7708 17.5689 15.615Z" fill="#F0E3E7"/>
<path d="M22.1891 20.7248C23.1947 19.9936 24.7334 20.2709 25.6194 21.3436C26.5054 22.4164 26.4081 23.8844 25.4025 24.6158C24.397 25.3471 22.8577 25.0691 21.9717 23.9964C21.0858 22.9236 21.1836 21.4562 22.1891 20.7248ZM24.3415 23.331C24.6829 23.0827 24.7164 22.5843 24.4151 22.2194C24.1143 21.8551 23.5916 21.7613 23.2502 22.0096C22.9088 22.2579 22.8752 22.7564 23.176 23.1206C23.4773 23.4855 24 23.5793 24.3415 23.331Z" fill="#F0E3E7"/>
<path d="M35.5265 8.66207C33.4374 12.1148 24.6209 12.7907 21.3586 11.9237C20.1711 10.0126 18.7874 8.11453 17.1919 6.16764L22.5147 4.76392C23.2601 6.13102 25.228 6.81544 26.5942 6.49982C27.9604 6.18333 28.0502 4.92086 27.4495 3.79265L30.8167 2.67578C32.5892 4.31752 34.1743 6.34375 35.5265 8.66207Z" fill="#FF9FB3"/>
<path d="M40.5826 31.7264L37.1805 32.321C37.1247 31.1021 36.7437 29.8187 35.2267 29.8187C33.489 29.8187 31.9388 31.981 32.4044 33.6001L27.3327 34.7945C27.2447 25.3016 25.4713 18.5341 21.3586 11.9235C28.8201 7.6191 35.5266 8.66186 35.5266 8.66186C39.1449 14.8583 41.1066 23.1393 40.5826 31.7264Z" fill="#FF8293"/>
<path d="M27.179 12.8879C28.387 12.5086 29.7826 13.2768 30.2894 14.6C30.7962 15.9232 30.2252 17.3079 29.0171 17.6872C27.8091 18.0665 26.4146 17.2989 25.9078 15.9757C25.4009 14.6524 25.9709 13.2672 27.179 12.8879ZM28.4101 16.1025C28.8203 15.9737 29.0146 15.5035 28.8426 15.0542C28.6705 14.605 28.1961 14.3438 27.786 14.4726C27.3758 14.6014 27.1825 15.0722 27.3546 15.5215C27.5266 15.9707 27.9999 16.2313 28.4101 16.1025Z" fill="#FCF4F6"/>
<path d="M32.3497 12.147C32.4657 12.1105 32.595 12.1043 32.729 12.1345C33.1604 12.2325 33.4759 12.6714 33.4339 13.116L32.4424 23.5462C32.4131 23.8527 32.2223 24.0822 31.9647 24.1631C31.8489 24.1995 31.7192 24.2056 31.5851 24.1749C31.154 24.0777 30.8389 23.6378 30.881 23.1933L31.8725 12.763C31.9014 12.4565 32.0926 12.2278 32.3497 12.147Z" fill="#FCF4F6"/>
<path d="M35.1501 18.5794C36.3581 18.2001 37.7533 18.9674 38.2601 20.2906C38.767 21.6138 38.1962 22.9992 36.9882 23.3786C35.7801 23.7579 34.3846 22.9897 33.8777 21.6666C33.371 20.3433 33.942 18.9587 35.1501 18.5794ZM36.3812 21.794C36.7914 21.6652 36.9857 21.195 36.8133 20.7449C36.6412 20.2957 36.1672 20.0353 35.757 20.1641C35.3468 20.2929 35.1525 20.7631 35.3245 21.2123C35.497 21.6624 35.971 21.9227 36.3812 21.794Z" fill="#FCF4F6"/>
</g>
<defs>
<clipPath id="clip0_467_15814">
<rect width="40" height="40" fill="white" transform="translate(0.666504)"/>
</clipPath>
</defs>
</svg>
