<svg width="48" height="48" viewBox="0 0 48 48" fill="none" xmlns="http://www.w3.org/2000/svg">
<g clip-path="url(#clip0_50_1964)">
<path d="M46.9687 25.0312H29.8136C29.2441 25.0312 28.7823 24.5695 28.7823 24C28.7823 23.4305 29.2441 22.9688 29.8136 22.9688H46.9687C47.5383 22.9688 48 23.4305 48 24C48 24.5695 47.5383 25.0312 46.9687 25.0312Z" fill="#FD384F"/>
<path d="M46.9687 42.2816H29.8136C29.2441 42.2816 28.7823 41.8199 28.7823 41.2504C28.7823 40.6808 29.2441 40.2191 29.8136 40.2191H46.9687C47.5383 40.2191 48 40.6808 48 41.2504C48 41.8199 47.5383 42.2816 46.9687 42.2816Z" fill="#FD384F"/>
<path d="M29.8136 27.8904H1.03125C0.461719 27.8904 0 27.4287 0 26.8592C0 26.2897 0.461719 25.8279 1.03125 25.8279H29.8136C30.3832 25.8279 30.8449 26.2897 30.8449 26.8592C30.8449 27.4287 30.3832 27.8904 29.8136 27.8904Z" fill="#FD384F"/>
<path d="M44.1096 17.2504H42.2816V3.89044C42.2816 1.74525 40.5364 0 38.3912 0H3.89044C1.74525 0 0 1.74525 0 3.89044V29.7184C0 31.8636 1.74525 33.6088 3.89044 33.6088H17.2504V37.2647H12.5632C11.9937 37.2647 11.532 37.7264 11.532 38.2959C11.532 38.8655 11.9937 39.3272 12.5632 39.3272H28.7824V44.1096C28.7824 46.2548 30.5276 48 32.6728 48H44.1096C46.2548 48 48 46.2548 48 44.1096V21.1408C48 18.9956 46.2548 17.2504 44.1096 17.2504ZM2.0625 29.7184V3.89044C2.0625 2.88253 2.88253 2.0625 3.89044 2.0625H38.3912C39.3991 2.0625 40.2191 2.88253 40.2191 3.89044V17.2504H32.6728C30.5276 17.2504 28.7824 18.9956 28.7824 21.1408V31.5463H3.89044C2.88253 31.5463 2.0625 30.7263 2.0625 29.7184ZM19.3129 33.6088H22.9688V37.2647H19.3129V33.6088ZM25.0312 37.2647V33.6088H28.7824V37.2647H25.0312ZM45.9375 44.1096C45.9375 45.1175 45.1175 45.9375 44.1096 45.9375H32.6728C31.6649 45.9375 30.8449 45.1175 30.8449 44.1096V21.1408C30.8449 20.1329 31.6649 19.3129 32.6728 19.3129H44.1096C45.1175 19.3129 45.9375 20.1329 45.9375 21.1408V44.1096Z" fill="black"/>
</g>
<defs>
<clipPath id="clip0_50_1964">
<rect width="48" height="48" fill="white"/>
</clipPath>
</defs>
</svg>
